<svg xmlns="http://www.w3.org/2000/svg" viewBox="0 0 15.9 15"><defs><style>.cls-1{fill:#4d4d4d;}</style></defs><title>Asset 7</title><g id="Layer_2" data-name="Layer 2"><g id="Layer_1-2" data-name="Layer 1"><path class="cls-1" d="M7.8,9.5a3.6,3.6,0,0,1-2-.6L1.4,6.1a2.3,2.3,0,0,1-1-1.9A2.1,2.1,0,0,1,1.7,2.5L6.4.4a4.3,4.3,0,0,1,4.1.3l4.4,2.7a2.3,2.3,0,0,1,1,1.9A2.4,2.4,0,0,1,14.7,7L9.9,9.2a3.9,3.9,0,0,1-2.1.3m.6-8.3a4,4,0,0,0-1.5.3L2.1,3.6a1.3,1.3,0,0,0-.5.7,1.2,1.2,0,0,0,.4.8L6.5,7.8a3,3,0,0,0,2.9.3l4.8-2.2a1.3,1.3,0,0,0,.5-.7,1.2,1.2,0,0,0-.4-.8L9.8,1.7a2.4,2.4,0,0,0-1.4-.5M9.5,14.6l5.6-2.5a.6.6,0,0,0,.3-.8.7.7,0,0,0-.8-.3L9,13.5a3,3,0,0,1-2.9-.2L.9,10.1a.5.5,0,0,0-.8.2.5.5,0,0,0,.2.8l5.1,3.2a5.3,5.3,0,0,0,2,.7,5.2,5.2,0,0,0,2.1-.4m.2-2.7,5.6-2.5a.6.6,0,0,0,.3-.8.7.7,0,0,0-.8-.3L9.2,10.8a3.3,3.3,0,0,1-2.9-.2L1.1,7.4a.5.5,0,0,0-.8.2.6.6,0,0,0,.2.8l5.1,3.2a4.8,4.8,0,0,0,2,.7,5.2,5.2,0,0,0,2.1-.4"/></g></g></svg>