<svg xmlns="http://www.w3.org/2000/svg" viewBox="0 0 16.8 18"><defs><style>.cls-1{fill:#4d4d4d;}</style></defs><title>Asset 1</title><g id="Layer_2" data-name="Layer 2"><g id="Layer_1-2" data-name="Layer 1"><path class="cls-1" d="M.6,3.6H1.8V15.9A2.1,2.1,0,0,0,3.9,18h9A2.1,2.1,0,0,0,15,15.9V3.6h1.2a.6.6,0,0,0,.6-.6.6.6,0,0,0-.6-.6H.6A.6.6,0,0,0,0,3a.6.6,0,0,0,.6.6m13.2,0V15.9a.9.9,0,0,1-.9.9h-9a.9.9,0,0,1-.9-.9V3.6Z"/><path class="cls-1" d="M6,1.2h4.8a.6.6,0,0,0,.6-.6.6.6,0,0,0-.6-.6H6a.6.6,0,0,0-.6.6.6.6,0,0,0,.6.6"/><path class="cls-1" d="M6.4,14.4a.6.6,0,0,0,.6-.6V6.6A.6.6,0,0,0,6.4,6a.6.6,0,0,0-.6.6v7.2a.6.6,0,0,0,.6.6"/><path class="cls-1" d="M10.4,14.4a.6.6,0,0,0,.6-.6V6.6a.6.6,0,0,0-1.2,0v7.2a.6.6,0,0,0,.6.6"/></g></g></svg>