<svg xmlns="http://www.w3.org/2000/svg" viewBox="0 0 21 15"><defs><style>.cls-1{fill:#4d4d4d;fill-rule:evenodd;}</style></defs><title>Asset 1</title><g id="Layer_2" data-name="Layer 2"><g id="Layer_1-2" data-name="Layer 1"><path class="cls-1" d="M14.3,0a3.7,3.7,0,0,0-3.7,3H.8a.7.7,0,0,0-.8.8.7.7,0,0,0,.8.7h9.8a3.7,3.7,0,0,0,7.3,0h2.4a.7.7,0,0,0,.7-.7.7.7,0,0,0-.7-.8H17.9a3.7,3.7,0,0,0-3.6-3m0,1.5a2.2,2.2,0,0,1,2.2,2.3A2.2,2.2,0,0,1,14.3,6a2.3,2.3,0,1,1,0-4.5"/><path class="cls-1" d="M6.8,7.5a3.7,3.7,0,0,0-3.7,3H.8a.7.7,0,0,0-.8.8.7.7,0,0,0,.8.7H3.1a3.7,3.7,0,0,0,3.7,3,3.7,3.7,0,0,0,3.6-3h9.9a.7.7,0,0,0,.7-.7.7.7,0,0,0-.7-.8H10.4a3.7,3.7,0,0,0-3.6-3M6.8,9A2.2,2.2,0,0,1,9,11.3a2.2,2.2,0,0,1-2.2,2.2A2.3,2.3,0,1,1,6.8,9"/></g></g></svg>