<svg xmlns="http://www.w3.org/2000/svg" viewBox="0 0 46 46"><defs><style>.cls-1{fill:#fff;}.cls-1,.cls-3{fill-rule:evenodd;}.cls-2{fill:none;stroke:#00354b;stroke-miterlimit:10;}.cls-3{fill:#008188;}</style></defs><title>Asset 2</title><g id="Layer_2" data-name="Layer 2"><g id="Layer_1-2" data-name="Layer 1"><path class="cls-1" d="M12.4.5H33.6A11.9,11.9,0,0,1,45.5,12.4V33.6A11.9,11.9,0,0,1,33.6,45.5H12.4A11.9,11.9,0,0,1,.5,33.6V12.4A11.9,11.9,0,0,1,12.4.5"/><rect class="cls-2" x="0.5" y="0.5" width="45" height="45" rx="11.9"/><path class="cls-3" d="M26.1,33a1.1,1.1,0,0,0,1.3-.1h0a.9.9,0,0,0,0-1.2L18.8,23l8.6-8.6h0a.9.9,0,0,0,0-1.2,1,1,0,0,0-1.4,0l-9.2,9.2h-.1a1.1,1.1,0,0,0,.1,1.3L26,32.9Z"/></g></g></svg>