<svg xmlns="http://www.w3.org/2000/svg" viewBox="0 0 27.5 27.5"><defs><style>.cls-1{fill:#2967b0;}.cls-2{fill:#fdfdfd;}</style></defs><title>Asset 14</title><g id="Layer_2" data-name="Layer 2"><g id="Layer_1-2" data-name="Layer 1"><path class="cls-1" d="M27.5,13.7A13.8,13.8,0,1,1,0,13.7a13.8,13.8,0,0,1,27.5,0"/><path class="cls-2" d="M14.8,11.9l.6-.8a4,4,0,0,1,2.6-1l1.6.2a3.4,3.4,0,0,1,2.2,2.3,12.4,12.4,0,0,1,.3,2.7V21c0,.2-.1.2-.3.2H18.9c-.2,0-.2,0-.2-.2V15.6a5.3,5.3,0,0,0-.1-1.3,1.5,1.5,0,0,0-1.7-1.2A1.7,1.7,0,0,0,15,14.9a2.5,2.5,0,0,0-.1.8V21c0,.2,0,.2-.2.2H11.8c-.2,0-.2,0-.2-.2V10.6c0-.2,0-.2.2-.2h2.8c.1,0,.2,0,.2.2v1.3"/><path class="cls-2" d="M9.4,15.8V21c0,.2,0,.2-.2.2H6.3c-.2,0-.2,0-.2-.2V10.6c0-.2,0-.2.2-.2H9.2c.2,0,.2.1.2.2v5.2"/><path class="cls-2" d="M9.7,6.9A2,2,0,0,1,5.8,7a2,2,0,0,1,2-2A2,2,0,0,1,9.7,6.9"/></g></g></svg>