<svg xmlns="http://www.w3.org/2000/svg" viewBox="0 0 18.8 30"><defs><style>.cls-1{fill:#4d4d4d;}</style></defs><title>Asset 4</title><g id="Layer_2" data-name="Layer 2"><g id="Layer_1-2" data-name="Layer 1"><path class="cls-1" d="M9.4,14.4A5,5,0,1,0,4.5,9.5a4.9,4.9,0,0,0,4.9,4.9m0-8.1A3.2,3.2,0,1,1,6.2,9.5,3.1,3.1,0,0,1,9.4,6.3"/><path class="cls-1" d="M4,18.3c1.4,1.8.8,1.1,4.7,6.6a.8.8,0,0,0,1.4,0l4.6-6.6a23,23,0,0,0,3.5-5.8,9.2,9.2,0,0,0-1.3-8.8A9.6,9.6,0,0,0,9.4,0,9.6,9.6,0,0,0,1.9,3.7,9.2,9.2,0,0,0,.6,12.5,22.6,22.6,0,0,0,4,18.3M3.3,4.7A7.8,7.8,0,0,1,9.4,1.8a8.1,8.1,0,0,1,6.1,2.9,7.7,7.7,0,0,1,1,7.2,17.1,17.1,0,0,1-3.2,5.3L9.4,22.8l-4-5.6a22,22,0,0,1-3.2-5.3A7.4,7.4,0,0,1,3.3,4.7"/><path class="cls-1" d="M4.7,22.1a.9.9,0,0,0-1.2-.3L1,23.4a.9.9,0,0,0,0,1.5l7.9,5a1.4,1.4,0,0,0,.9,0l7.9-5a.8.8,0,0,0,0-1.5l-2.5-1.6a1,1,0,0,0-1.2.3.9.9,0,0,0,.3,1.2l1.3.8-6.2,4-6.2-4,1.3-.8a.8.8,0,0,0,.2-1.2"/></g></g></svg>