<svg xmlns="http://www.w3.org/2000/svg" viewBox="0 0 14.6 14"><defs><style>.cls-1{fill:#4d4d4d;}</style></defs><title>Asset 9</title><g id="Layer_2" data-name="Layer 2"><g id="Layer_1-2" data-name="Layer 1"><path class="cls-1" d="M6.8,9.2a.5.5,0,0,0,0,.7h.7L10,7.3h.2c0-.2,0-.3-.2-.4L7.5,4.1a.5.5,0,0,0-.7.7L8.6,6.5H.5a.5.5,0,0,0,0,1H8.6Z"/><path class="cls-1" d="M7.6,0A6.9,6.9,0,0,0,1.1,4.4a.5.5,0,0,0,.3.7c.2.1.5-.1.6-.3A6,6,0,0,1,7.6,1a6,6,0,0,1,6.1,6,6,6,0,0,1-6.1,6A6,6,0,0,1,2,9.2c-.1-.2-.4-.4-.6-.3a.5.5,0,0,0-.3.7A6.9,6.9,0,0,0,7.6,14a7,7,0,0,0,7-7,7,7,0,0,0-7-7"/></g></g></svg>