<svg xmlns="http://www.w3.org/2000/svg" viewBox="0 0 16.5 16.5"><defs><style>.cls-1{fill:#b1b1b1;}</style></defs><title>Asset 5</title><g id="Layer_2" data-name="Layer 2"><g id="Layer_1-2" data-name="Layer 1"><path class="cls-1" d="M8.3,11.5A3.5,3.5,0,0,0,11.8,8V3.6a3.6,3.6,0,1,0-7.1,0V8a3.6,3.6,0,0,0,3.6,3.5M5.7,3.6a2.6,2.6,0,1,1,5.1,0V8a2.5,2.5,0,0,1-2.5,2.5A2.5,2.5,0,0,1,5.7,8ZM14.2,9a6.1,6.1,0,0,1-2.1,3.5,5.8,5.8,0,0,1-3.3,1.4v1.6h3.3a.5.5,0,1,1,0,1H4.4a.5.5,0,0,1,0-1H7.7V13.9a5.8,5.8,0,0,1-3.3-1.4A6.1,6.1,0,0,1,2.3,9a.6.6,0,0,1,.5-.6c.2,0,.5.1.5.4a5,5,0,0,0,9.9,0c0-.3.3-.4.5-.4a.6.6,0,0,1,.5.6m0-5.5v3a.6.6,0,0,1-.5.5.6.6,0,0,1-.6-.5v-3a.6.6,0,0,1,.6-.5.5.5,0,0,1,.5.5m2.3.7V5.7a.5.5,0,1,1-1,0V4.2a.5.5,0,1,1,1,0M2.3,6.5v-3A.5.5,0,0,1,2.8,3a.6.6,0,0,1,.6.5v3a.6.6,0,0,1-.6.5.6.6,0,0,1-.5-.5M1,4.2V5.7a.6.6,0,0,1-.5.6A.6.6,0,0,1,0,5.7V4.2a.5.5,0,0,1,.5-.5.5.5,0,0,1,.5.5"/></g></g></svg>