<svg xmlns="http://www.w3.org/2000/svg" viewBox="0 0 14.4 15"><defs><style>.cls-1{fill:#4d4d4d;}</style></defs><title>Asset 8</title><g id="Layer_2" data-name="Layer 2"><g id="Layer_1-2" data-name="Layer 1"><path class="cls-1" d="M14.3,8.8l-.6-1.1a.3.3,0,0,1,0-.4l.6-1.1a1.4,1.4,0,0,0-.6-1.8l-1.1-.6c-.2,0-.2-.1-.3-.3l-.2-1.2a1.2,1.2,0,0,0-1.4-1.1l-1.3.2H9L8.1.4A1.3,1.3,0,0,0,6.3.4l-.9.9H5L3.7,1.2A1.2,1.2,0,0,0,2.3,2.3L2.1,3.5q-.2.3-.3.3L.7,4.4A1.4,1.4,0,0,0,.1,6.2L.7,7.3a.3.3,0,0,1,0,.4L.1,8.8a1.4,1.4,0,0,0,.6,1.8l1.1.6.3.3.2,1.2a1.2,1.2,0,0,0,1.3,1.1h.1L5,13.6h.4l.9.9a1.1,1.1,0,0,0,.9.4,1.1,1.1,0,0,0,.9-.4l.9-.9h.4l1.3.2a1.2,1.2,0,0,0,1.4-1.1l.2-1.2c.1-.2.1-.3.3-.3l1.1-.6a1.4,1.4,0,0,0,.6-1.8m-1,1-1.1.6a1.3,1.3,0,0,0-.7.9l-.2,1.3c-.1.2-.3.4-.5.3H9.5a1.1,1.1,0,0,0-1.1.3l-.9.9a.4.4,0,0,1-.6,0L6,13.1l-.9-.3H3.6c-.2.1-.4-.1-.5-.3l-.2-1.3a1.3,1.3,0,0,0-.7-.9L1.1,9.8a.5.5,0,0,1-.2-.6l.6-1.1a2.4,2.4,0,0,0,0-1.2L.9,5.8a.5.5,0,0,1,.2-.6l1.1-.6a1.3,1.3,0,0,0,.7-.9l.2-1.3c.1-.2.3-.4.5-.3H4.9A1.1,1.1,0,0,0,6,1.9L6.9,1a.4.4,0,0,1,.6,0l.9.9a1.1,1.1,0,0,0,1.1.3h1.3c.2-.1.4.1.5.3l.2,1.3a1.3,1.3,0,0,0,.7.9l1.1.6a.5.5,0,0,1,.2.6l-.6,1.1a1.3,1.3,0,0,0,0,1.2l.6,1.1a.5.5,0,0,1-.2.6"/><path class="cls-1" d="M10.4,4.3H9.7L4,10a.9.9,0,0,0,0,.7h.6L10.4,5a.9.9,0,0,0,0-.7"/><path class="cls-1" d="M5.5,6.8A1.6,1.6,0,0,0,7.1,5.2,1.6,1.6,0,0,0,5.5,3.6a1.6,1.6,0,0,0,0,3.2m0-2.3a.7.7,0,0,1,0,1.4.8.8,0,0,1-.8-.7.8.8,0,0,1,.8-.7"/><path class="cls-1" d="M8.9,8.2a1.6,1.6,0,0,0,0,3.2,1.6,1.6,0,0,0,0-3.2m0,2.3a.7.7,0,1,1,.7-.7.7.7,0,0,1-.7.7"/></g></g></svg>