<svg xmlns="http://www.w3.org/2000/svg" viewBox="0 0 15.8 15.8"><defs><style>.cls-1{fill:#fff;}</style></defs><title>Asset 2</title><g id="Layer_2" data-name="Layer 2"><g id="Layer_1-2" data-name="Layer 1"><path class="cls-1" d="M11.8,0H3.9A4,4,0,0,0,0,3.9v7.9a4,4,0,0,0,3.9,4h7.9a4,4,0,0,0,4-4V3.9a4,4,0,0,0-4-3.9m2.7,11.8a2.7,2.7,0,0,1-2.7,2.7H3.9a2.7,2.7,0,0,1-2.6-2.7V3.9A2.6,2.6,0,0,1,3.9,1.3h7.9a2.7,2.7,0,0,1,2.7,2.6Z"/><path class="cls-1" d="M11.2,7.2H8.5V4.6c0-.4-.2-.7-.6-.7a.7.7,0,0,0-.7.7V7.2H4.6a.7.7,0,0,0-.7.7c0,.4.3.6.7.6H7.2v2.7a.7.7,0,0,0,.7.6.6.6,0,0,0,.6-.6V8.5h2.7a.6.6,0,0,0,.6-.6.7.7,0,0,0-.6-.7"/></g></g></svg>