<svg xmlns="http://www.w3.org/2000/svg" viewBox="0 0 51.6 69.6"><defs><style>.cls-1{fill:#9ff4f4;}</style></defs><title>Asset 5</title><g id="Layer_2" data-name="Layer 2"><g id="Layer_1-2" data-name="Layer 1"><path class="cls-1" d="M19.4.8A25.9,25.9,0,0,0,8.5,45L.3,59.4a1.4,1.4,0,0,0,.1,1.5,1.4,1.4,0,0,0,1.4.5l9.3-1.9,3.2,9.2a1.6,1.6,0,0,0,1.2.9,1.7,1.7,0,0,0,1.3-.7l9-15.9,9,15.9a1.5,1.5,0,0,0,1.2.7h.1a1.4,1.4,0,0,0,1.2-.9l3.3-9.2,9.3,1.9a1.3,1.3,0,0,0,1.3-.5,1.2,1.2,0,0,0,.1-1.5L43.1,45a25.5,25.5,0,0,0,8.5-19.2A25.7,25.7,0,0,0,32.2.8a1.3,1.3,0,0,0-1.6,1,1.3,1.3,0,0,0,1,1.6,23.2,23.2,0,1,1-11.5,0,1.3,1.3,0,0,0,1-1.6,1.5,1.5,0,0,0-1.7-1M15.9,65l-2.7-7.6a1.2,1.2,0,0,0-1.5-.8L4.2,58.1l6.4-11.4a26.4,26.4,0,0,0,12.9,4.8ZM40,56.6a1.3,1.3,0,0,0-1.6.8L35.7,65,28.1,51.5A26.4,26.4,0,0,0,41,46.7l6.5,11.4Z"/><path class="cls-1" d="M5.4,25.8A20.4,20.4,0,1,0,25.8,5.4,20.4,20.4,0,0,0,5.4,25.8M25.8,8.2A17.7,17.7,0,1,1,8.2,25.8,17.6,17.6,0,0,1,25.8,8.2"/><path class="cls-1" d="M13.2,23.4l5.3,5.2-1.2,7.3a1.3,1.3,0,0,0,.5,1.3,1.6,1.6,0,0,0,1.5.1l6.5-3.4,6.6,3.4a1.4,1.4,0,0,0,1.4-.1,1.3,1.3,0,0,0,.5-1.3l-1.2-7.3,5.3-5.2a1.2,1.2,0,0,0,.3-1.4,1.2,1.2,0,0,0-1-.9L30.3,20,27,13.4a1.3,1.3,0,0,0-2.4,0L21.3,20,14,21.1a1.4,1.4,0,0,0-.8,2.3m9.2-.8a1.6,1.6,0,0,0,1-.8L25.8,17l2.4,4.8a1.6,1.6,0,0,0,1,.8l5.4.8-3.9,3.7a1.9,1.9,0,0,0-.4,1.2l.9,5.3-4.8-2.4-.6-.2-.6.2-4.8,2.4.9-5.3a1.5,1.5,0,0,0-.4-1.2l-3.8-3.7Z"/><path class="cls-1" d="M27.2,1.4a1.3,1.3,0,0,1-1.4,1.3,1.3,1.3,0,0,1-1.3-1.3A1.3,1.3,0,0,1,25.8,0a1.4,1.4,0,0,1,1.4,1.4"/></g></g></svg>