<svg xmlns="http://www.w3.org/2000/svg" viewBox="0 0 30 33.4"><defs><style>.cls-1{fill:#009ba0;}</style></defs><title>Asset 2</title><g id="Layer_2" data-name="Layer 2"><g id="Layer_1-2" data-name="Layer 1"><path class="cls-1" d="M4.5,16.3a.8.8,0,0,0,.1.8,9.6,9.6,0,0,0,2.6,2.7,9.1,9.1,0,0,0,5,1.5h1.5a10,10,0,0,0,4.9-2.5l.8-.9h0l.4.2a3.8,3.8,0,0,0,1.3.9,9,9,0,0,0,3.6,1.3c.5.1.7-.1.8-.4a.6.6,0,0,0-.2-.8,7.9,7.9,0,0,1-1.9-2.2v-.2l.7-1,.8-.8.3-.3a.9.9,0,0,0,.3-.5.4.4,0,0,0-.1-.3.6.6,0,0,0-.8-.3h-.6l-1.3.4a7,7,0,0,0-2.7,1.4l-.6.5h0a8.8,8.8,0,0,0-3.6-2.8,8.5,8.5,0,0,0-6.8-.2,8.5,8.5,0,0,0-4.6,3.6M23,15c-.1.1-.2.2-.2.3l-.5.7c0,.1-.1.2-.2.3a.8.8,0,0,0,.1.8l.9,1.3a8.1,8.1,0,0,1-2.8-1.7A7.7,7.7,0,0,1,23,15M9.1,18.1a.6.6,0,0,0,0,.6l.4.3a.8.8,0,0,0,.8-.5,5.5,5.5,0,0,0-.6-4.7l.8-.2A7.7,7.7,0,0,1,18,15.9l.6.8A7.6,7.6,0,0,1,12.5,20a7.3,7.3,0,0,1-5.3-1.8,5.2,5.2,0,0,1-1-1.1l-.4-.4a8.8,8.8,0,0,1,2.7-2.4h0a3.3,3.3,0,0,1,.7,1.6,5.5,5.5,0,0,1-.1,2.2"/><path class="cls-1" d="M7.9,15.2A.9.9,0,0,0,7,16a.9.9,0,0,0,.3.7.9.9,0,0,0,.6.3h0a.9.9,0,0,0,.7-.3,1.4,1.4,0,0,0,.2-.6h0a.8.8,0,0,0-.9-.9Z"/><path class="cls-1" d="M29.2,13.1l-2-.6L25.1,12l.4-.3,3.5-2,.3-.2a1.1,1.1,0,0,0,.1-1.3A1.1,1.1,0,0,0,28.2,8L25.4,9.6l-1.3.7a.4.4,0,0,0,.1-.3c.3-1.3.7-2.6,1-3.9A1.1,1.1,0,0,0,24.9,5a1,1,0,0,0-1.5.7l-1.5,5.6a1.3,1.3,0,0,1-.4.6,13.5,13.5,0,0,0-2.6,1.5l.7.7a8.5,8.5,0,0,1,2.8-1.5l1.4-.3.6-.2h.5a1.7,1.7,0,0,1,1.6.9,1.6,1.6,0,0,1,.3.9,4.3,4.3,0,0,0-.1.5l2,.5a.9.9,0,0,0,1.2-.5c.3-.5,0-1.1-.7-1.3"/><path class="cls-1" d="M28.7,18.4l-2,.6a2.9,2.9,0,0,1-.1,1.3,1.9,1.9,0,0,1-1.7,1h-.4a13.4,13.4,0,0,1-4-1.4l-.9-.6-.2.2-.5.5,2.5,1.5c.3.1.4.3.5.6l1.5,5.6a.9.9,0,0,0,1.2.7.9.9,0,0,0,.6-1.2c-.2-.6-.3-1.3-.5-1.9L24.1,23l.4.3,3.6,2a1,1,0,0,0,1.4-.3c.3-.5.1-1-.5-1.3l-2.2-1.3-1.7-1,1.1-.3,3-.8a1,1,0,0,0,.6-1.5.9.9,0,0,0-1.1-.4"/><path class="cls-1" d="M4.9,19.4l-3.6-1c-.6-.1-1.1.1-1.2.6a1,1,0,0,0,.7,1.3l3.7,1h.4l-.4.3-3.6,2A1,1,0,0,0,.5,25a1,1,0,0,0,1.4.3l1-.6,3-1.7a.8.8,0,0,0-.1.4c-.3,1.3-.7,2.5-1,3.8s.3,1.4,1.1,1.2.6-.3.7-.8L8.1,22l.2-.3-1.7-.9L4.9,19.4"/><path class="cls-1" d="M11.1,2.7l-.3-.3a.9.9,0,0,0-1.3.3c-.3.4-.2.8.2,1.2l4.2,4.2a.8.8,0,0,1,.2.5v2.5l1.8.5c0-1,0-2.1.1-3.1a.6.6,0,0,1,.1-.4l4-3.9a.8.8,0,0,1,.4-.4,1,1,0,0,0-.4-1.5.9.9,0,0,0-1.1.3L16.2,5.3q0,.2-.3.3V4.4c0-1.1.1-2.3,0-3.4A.9.9,0,0,0,15,0c-.6,0-.9.4-.9,1V5.6l-3-2.9"/><path class="cls-1" d="M16.2,25.3c-.2-.2-.3-.3-.3-.5v-3l-1.8.5v2.5c0,.2-.1.3-.3.5l-4,4-.3.3a1.2,1.2,0,0,0-.1,1,1.1,1.1,0,0,0,.9.5,1,1,0,0,0,.8-.4L13.8,28c0-.1.1-.1.3-.2v1.9a24.3,24.3,0,0,0,0,2.7.9.9,0,0,0,1,1,1,1,0,0,0,.8-1.1V27.8c.2.1.3.1.3.2l2.7,2.7.3.3a.9.9,0,0,0,1,0,.8.8,0,0,0,.5-.8,1.2,1.2,0,0,0-.4-.8l-4.1-4.1"/><path class="cls-1" d="M.5,13.2a.9.9,0,0,0-.4,1.2.9.9,0,0,0,1.2.5l3.6-1a11.1,11.1,0,0,1,3.4-2.2c-.1-.1-.1-.2-.2-.4L6.6,5.6c-.2-.5-.7-.9-1.1-.7a.9.9,0,0,0-.7,1.2c.1.6.3,1.2.4,1.7a23.3,23.3,0,0,1,.7,2.5l-.4-.2L1.9,8a.9.9,0,0,0-1.1.1A.9.9,0,0,0,1,9.7l3.6,2.1.3.2-4,1.1H.5"/></g></g></svg>