<svg xmlns="http://www.w3.org/2000/svg" viewBox="0 0 30 40.4"><defs><style>.cls-1{fill:#009ba0;}</style></defs><title>Asset 1</title><g id="Layer_2" data-name="Layer 2"><g id="Layer_1-2" data-name="Layer 1"><path class="cls-1" d="M3.2,15A11.8,11.8,0,1,0,15,3.2,11.8,11.8,0,0,0,3.2,15M15,4.7A10.3,10.3,0,1,1,4.7,15,10.3,10.3,0,0,1,15,4.7"/><path class="cls-1" d="M7.7,13.6l3,3L10,20.8a.9.9,0,0,0,.4.8.8.8,0,0,0,.8.1l3.8-2,3.8,2a.8.8,0,0,0,.8-.1.9.9,0,0,0,.4-.8l-.7-4.2,3-3a.8.8,0,0,0,.2-.8.9.9,0,0,0-.6-.6l-4.3-.6L15.7,7.8a.7.7,0,0,0-1.4,0l-1.9,3.8-4.3.6a.9.9,0,0,0-.6.6.8.8,0,0,0,.2.8m5.3-.5a.7.7,0,0,0,.6-.4L15,9.9l1.4,2.8a.7.7,0,0,0,.6.4l3.1.5-2.2,2.2a.9.9,0,0,0-.3.7l.5,3-2.7-1.4h-.8l-2.7,1.4.5-3a.9.9,0,0,0-.3-.7L9.9,13.6Z"/><path class="cls-1" d="M15.8.8a.8.8,0,0,1-1.6,0,.8.8,0,0,1,1.6,0"/><path class="cls-1" d="M11.3.5A15,15,0,0,0,4.9,26.1L.2,34.5a.8.8,0,0,0,0,.9,1.1,1.1,0,0,0,.8.3l5.4-1.2,1.9,5.4a.8.8,0,0,0,.7.5.9.9,0,0,0,.8-.4L15,30.8,20.2,40a.8.8,0,0,0,.7.4H21a.8.8,0,0,0,.7-.5l1.9-5.4L29,35.7a1.1,1.1,0,0,0,.8-.3.8.8,0,0,0,0-.9l-4.7-8.4A15,15,0,0,0,18.7.5a.7.7,0,0,0-.9.5.8.8,0,0,0,.5,1,13.4,13.4,0,1,1-6.6,0,.8.8,0,0,0,.5-1,.7.7,0,0,0-.9-.5M9.2,37.7,7.7,33.4a.7.7,0,0,0-.9-.5l-4.4.9,3.8-6.7a14.7,14.7,0,0,0,7.5,2.8Zm14-4.8a.7.7,0,0,0-.9.5l-1.5,4.3-4.5-7.8a14.7,14.7,0,0,0,7.5-2.8l3.8,6.7Z"/></g></g></svg>