<?xml version="1.0" encoding="UTF-8"?>
<svg id="Layer_1" data-name="Layer 1" xmlns="http://www.w3.org/2000/svg" viewBox="0 0 54.32 56.09">
  <defs>
    <style>
      .cls-1 {
        fill: #9ff4f4;
        stroke-width: 0px;
      }
    </style>
  </defs>
  <path class="cls-1" d="m26.62,54.95s.03,0,.05,0c7.12,0,13.81-2.75,18.85-7.74,5.06-5.02,7.85-11.72,7.86-18.88.02-14.6-11.89-26.55-26.56-26.64h0c-.09,0-.19,0-.28,0-7.01,0-13.62,2.72-18.64,7.69C2.8,14.43,0,21.14,0,28.26c0,14.69,11.95,26.66,26.62,26.69ZM11.03,9.99c4.84-4.12,10.98-6.16,17.29-5.73,6.17.42,11.81,3.11,15.88,7.57,9.71,10.64,7.68,25.03.12,32.81l-.23.24L10.77,10.21l.26-.22Zm-2.41,2.27l.23-.28,33.34,34.69-.28.22c-4.6,3.68-9.6,5.52-14.9,5.52-1.64,0-3.31-.18-5.01-.53-9.1-1.9-15.42-7.55-18.26-16.33-2.66-8.24-1.02-16.08,4.87-23.29Z"/>
  <path class="cls-1" d="m45.3,3.04l.81.81-1.71,1.62c.18.16.37.32.55.48.61.53,1.24,1.07,1.82,1.64.59.58,1.14,1.17,1.72,1.8.17.19.35.38.53.57l1.59-1.71.24.25c.2.21.39.41.57.6.4.43.78.83,1.17,1.2.36.35.87.39,1.3.1.26-.18.42-.45.45-.77.04-.4-.13-.82-.45-1.14-2.91-2.93-5.53-5.55-8.01-8-.22-.22-.52-.39-.79-.45-.54-.12-.93.23-1.12.6-.23.46-.15.89.23,1.28.36.37.73.73,1.13,1.13Z"/>
  <path class="cls-1" d="m5.98,48.89c-.1.1-.19.21-.29.31-.41.44-.83.89-1.26,1.34-1.06,1.08-1.35,2.32-.87,3.77.44,1.33,1.73,2.04,3.06,1.69.84-.22,1.52-.92,1.83-1.87.33-1,.18-2.05-.41-2.79-.52-.65-1.06-1.29-1.59-1.9-.16-.18-.32-.37-.47-.55Z"/>
  <path class="cls-1" d="m28.88,18.85c.07.06.13.11.19.16.34.34.68.68,1.01,1.02.66.67,1.33,1.33,2,1.99.22.21.48.33.73.33.23,0,.44-.1.61-.28.32-.33.26-.83-.15-1.24l-.44-.44c-.51-.51-1.03-1.04-1.55-1.55-.29-.28-.6-.54-.87-.78-.12-.1-.24-.2-.34-.3l-.26-.23,3.9-3.96.33.31c.08.08.18.17.27.26l.74.73c.69.68,1.37,1.36,2.05,2.06.33.33.66.42,1.06.28.27-.1.45-.29.51-.54.06-.29-.05-.62-.31-.88-.75-.76-1.51-1.52-2.28-2.28l-1.21-1.2,2.93-2.92-.13-.07c-.49-.25-.96-.49-1.43-.71-.03,0-.08.03-.1.04-3.48,3.49-6.95,6.98-10.42,10.48-.43.43-.85.87-1.28,1.31l-.39.4,1.14,1.13,3.39-3.4.32.27Z"/>
  <polygon class="cls-1" points="45.09 16.48 32.21 29.37 33.27 30.35 45.86 17.76 45.09 16.48"/>
  <path class="cls-1" d="m34.83,23.86c-.09-.08-.27-.16-.41-.16-2.42-.03-4.88-.02-7.17,0-.15,0-.3.02-.47.04l4.23,4.38.71-.76c1.01-1.08,1.96-2.09,2.91-3.14.09-.1.17-.26.2-.35Z"/>
  <path class="cls-1" d="m17.24,32.44c1.51,1.54,3.03,3.08,4.54,4.62.7.71,1.08.75,1.94.21.47-.3.94-.59,1.41-.88l.79-.49.18.13c.8.57,1.18.65,2.31-.69l-.13-.12c-.33-.3-.66-.59-.99-.89-.03-.03-.07-.06-.1-.08-.26.11-.52.02-.75-.27-.02-.02-.04-.05-.06-.07-.48-.48-.95-.96-1.42-1.44-.69-.71-1.39-1.41-2.09-2.11-.63-.63-1.29-1.25-1.93-1.85-.29-.27-.58-.55-.87-.82l-.21-.2.4-.53-1.16-1.23s-.03.03-.04.04c-.19.22-.38.43-.58.63-.73.74-.74.94-.12,1.78l.13.18-.11.19c-.15.24-.29.48-.44.72-.33.53-.67,1.07-.98,1.62-.35.62-.31.95.2,1.47l.08.08Z"/>
  <path class="cls-1" d="m11.78,43.55c.56-.56,1.09-1.1,1.62-1.65.24-.25.57-.5,1.13-.38.56.12,1.08-.03,1.54-.43.44-.39.88-.76,1.32-1.14.28-.24.57-.49.85-.73.45-.39.89-.78,1.32-1.15l.3-.26-3.6-3.6-.76.87c-.84.96-1.69,1.93-2.52,2.9-.4.47-.55,1-.45,1.61.05.32-.08.75-.32,1-.53.57-1.08,1.11-1.66,1.68-.14.13-.27.27-.41.4l1.21,1.32.43-.43Z"/>
</svg>