<?xml version="1.0" encoding="UTF-8"?>
<svg id="Layer_1" data-name="Layer 1" xmlns="http://www.w3.org/2000/svg" viewBox="0 0 79.09 44.71">
  <defs>
    <style>
      .cls-1 {
        fill: #9ff4f4;
        stroke-width: 0px;
      }
    </style>
  </defs>
  <path class="cls-1" d="m3.41,3.48h43.28v26.71h3.36V0H0v39.5h6.77v-3.41h-3.37V3.48Z"/>
  <path class="cls-1" d="m77.22,21.12c-2.78-3.58-5.54-7.17-8.33-10.74-1.6-2.05-3.69-3.3-6.32-3.39-2.75-.09-5.51-.04-8.27-.05-.78,0-1.57,0-2.41,0v3.45h.8c3.03,0,6.07.03,9.1,0,2.47-.03,4.01,1.33,5.3,3.37h-10.32v12.06h18.83v3.45h-5.09v3.39h5.27c-.16.97-.1,1.95-.49,2.69-.64,1.19-1.99.61-3.06.8v3.4c.59,0,1.14.02,1.69,0,2.76-.1,4.92-1.96,5.07-4.7.17-3.07.08-6.15,0-9.23-.04-1.68-.75-3.17-1.78-4.5Zm-17.01,1.17v-5.04c.18-.01.36-.04.54-.04,2.85,0,5.69,0,8.54,0,.23,0,.56.04.69.2,1.27,1.58,2.5,3.19,3.81,4.88h-13.58Z"/>
  <path class="cls-1" d="m61.9,30.93c-3.84,0-6.91,3.07-6.9,6.91.01,3.79,3.12,6.88,6.88,6.86,3.8-.03,6.9-3.12,6.88-6.88-.01-3.78-3.1-6.88-6.87-6.89Zm-.02,10.3c-1.86-.01-3.41-1.53-3.44-3.39-.03-1.85,1.56-3.44,3.45-3.44,1.91,0,3.42,1.54,3.4,3.45-.02,1.88-1.55,3.39-3.41,3.38Z"/>
  <path class="cls-1" d="m17.18,30.93c-3.76-.04-6.92,3.07-6.94,6.82-.01,3.79,3.03,6.9,6.81,6.95,3.7.05,6.92-3.03,6.95-6.65.04-3.98-2.94-7.08-6.83-7.12Zm-.03,10.3c-1.89,0-3.4-1.51-3.42-3.43-.02-1.84,1.51-3.38,3.38-3.39,1.89-.01,3.47,1.53,3.47,3.39,0,1.88-1.54,3.43-3.43,3.44Z"/>
  <path class="cls-1" d="m27.49,39.5h24v-3.34h-24v3.34Z"/>
  <path class="cls-1" d="m24.27,21.83c1.41-.23,2.63-.85,3.63-1.85.21-.21.39-.42.57-.63.02-.03.05-.05.07-.08.08.06.16.12.24.17.31.23.64.47.98.67.75.45,1.61.75,2.7.93.36.06.52-.11.59-.26.07-.15.1-.39-.18-.63-.56-.48-1.03-1.04-1.38-1.65l.07-.11c.17-.26.34-.53.54-.76.17-.2.37-.39.56-.58.09-.09.17-.17.26-.26.05-.05.18-.18.18-.38,0-.08-.02-.15-.06-.23-.12-.21-.32-.29-.57-.23-.17.04-.33.08-.5.12-.31.07-.64.15-.95.24-.72.22-1.4.58-2.02,1.06-.15.12-.29.24-.44.36h0c-.72-.94-1.62-1.64-2.66-2.1-1.65-.72-3.36-.77-5.06-.15-1.38.5-2.51,1.4-3.36,2.68-.14.2-.13.43,0,.64.53.81,1.19,1.48,1.96,1.97,1.15.74,2.39,1.12,3.68,1.12.38,0,.76-.03,1.15-.1Zm6.9-4.55c-.06.07-.11.14-.16.22-.12.17-.23.35-.34.53-.04.07-.09.14-.13.21-.12.19-.11.4.02.6.22.31.45.62.67.94-.76-.27-1.44-.68-2.08-1.26.61-.55,1.27-.96,2.01-1.23Zm-11.75,2.32c-.26-.22-.49-.49-.72-.76-.09-.11-.19-.22-.29-.34.54-.75,1.22-1.34,2-1.76,0,0,.01,0,.02-.01.25.35.42.74.5,1.19.1.54.06,1.08-.11,1.61-.06.18-.05.34.02.47.06.11.17.18.3.21.16.03.45.03.58-.39.39-1.23.26-2.4-.41-3.48.19-.06.4-.12.59-.16,2.17-.42,4.04.18,5.55,1.76.16.17.31.37.46.57-1.13,1.54-2.65,2.36-4.51,2.45-1.5.07-2.84-.39-3.98-1.36Z"/>
  <path class="cls-1" d="m19.97,17.38h0c-.36,0-.65.3-.66.65,0,.18.07.35.19.48s.31.2.49.2c0,0,0,0,0,0,.18,0,.35-.08.47-.2.12-.12.18-.28.18-.45v-.02c0-.39-.3-.67-.68-.67Z"/>
  <path class="cls-1" d="m35.81,15.85c-.51-.15-1.02-.28-1.53-.41-.51-.14-1.01-.27-1.57-.43.14-.08.23-.14.32-.19.87-.5,1.73-1,2.6-1.5.09-.05.18-.11.25-.18.24-.25.26-.63.04-.91-.21-.27-.57-.35-.89-.17-.69.39-1.38.79-2.07,1.19-.3.17-.61.35-.94.54.03-.12.05-.19.07-.27.25-.96.51-1.92.76-2.88.09-.33,0-.61-.25-.78-.45-.32-.96-.11-1.11.45-.38,1.41-.76,2.81-1.14,4.22-.05.18-.13.29-.3.39-.65.37-1.29.74-1.94,1.11.19.16.38.34.55.52.66-.48,1.36-.83,2.1-1.05.34-.1.68-.18,1.02-.26.17-.04.32-.07.48-.11.12-.03.24-.05.36-.05.49,0,.93.26,1.18.69.12.2.18.43.18.66,0,.1-.01.23-.05.36.5.13.99.27,1.49.4.41.11.75-.04.9-.36.19-.43-.02-.84-.51-.98Z"/>
  <path class="cls-1" d="m35.83,21.17c.51-.14.71-.67.43-1.08-.18-.27-.46-.36-.84-.26-.5.13-.99.27-1.49.4.1.34.04.68-.09.95-.23.48-.69.76-1.23.76-.13,0-.24-.02-.29-.03-1.21-.2-2.16-.53-3.01-1.04-.22-.14-.44-.28-.64-.42-.05.05-.1.1-.15.16-.13.13-.27.26-.41.38.64.37,1.28.74,1.92,1.1.18.1.27.22.33.42.37,1.39.74,2.79,1.12,4.18.12.44.49.67.86.57.41-.11.6-.47.48-.93-.12-.46-.24-.93-.37-1.39-.15-.55-.29-1.1-.44-1.69.12.07.2.11.29.16.89.51,1.77,1.02,2.66,1.53.42.24.84.15,1.04-.21.2-.36.07-.76-.34-.99-.56-.32-1.12-.64-1.68-.97-.41-.24-.81-.47-1.27-.74.32-.09.59-.16.86-.24.75-.2,1.51-.4,2.26-.61Z"/>
  <path class="cls-1" d="m17.65,26.34c-.15.56.25,1.01.79.91.33-.06.48-.29.57-.6.37-1.39.75-2.78,1.12-4.18.03-.1.07-.19.13-.25-.44-.18-.87-.41-1.29-.68-.45-.29-.86-.63-1.24-1.01-.9-.25-1.79-.48-2.69-.72-.41-.11-.78.07-.9.43-.14.41.08.8.53.92.93.25,1.86.5,2.78.75.09.03.19.05.33.09-.14.08-.24.14-.33.19-.89.51-1.77,1.02-2.66,1.54-.37.21-.5.63-.3.97.21.35.62.45,1,.23.27-.15.53-.31.8-.46.71-.41,1.43-.83,2.18-1.26-.02.11-.04.19-.06.26-.25.95-.5,1.9-.75,2.85Z"/>
  <path class="cls-1" d="m25.94,9.4c0-.85,0-1.7,0-2.55,0-.46-.31-.75-.74-.74-.4.01-.66.32-.66.77,0,1.04,0,2.08,0,3.12v.3c-.76-.76-1.47-1.47-2.18-2.18-.08-.08-.16-.16-.25-.22-.34-.24-.79-.14-1,.22-.18.3-.12.62.18.92,1.03,1.03,2.06,2.06,3.1,3.09.11.11.15.22.15.37,0,.61,0,1.23,0,1.84.47.09.94.22,1.4.4,0-.77,0-1.54,0-2.31,0-.1.07-.22.14-.3.97-.98,1.95-1.95,2.92-2.93.09-.09.2-.19.28-.29.31-.38.16-.91-.28-1.09-.32-.13-.58-.02-.81.21-.68.68-1.36,1.36-2.04,2.04-.06.06-.12.11-.22.2,0-.33,0-.6,0-.88Z"/>
  <path class="cls-1" d="m28.37,29.12c.23.16.47.17.71.05.24-.13.37-.33.37-.61,0-.25-.12-.43-.29-.59-1.02-1.02-2.04-2.04-3.06-3.06-.11-.11-.17-.23-.17-.39,0-.74,0-1.49,0-2.23-.45.17-.92.3-1.4.39,0,.61,0,1.23,0,1.84,0,.16-.05.28-.16.39-1.01,1-2.01,2-3.02,3-.07.07-.15.14-.21.23-.17.22-.18.47-.06.71.12.25.33.39.62.4.25,0,.43-.13.59-.3.68-.67,1.35-1.35,2.02-2.02.06-.06.12-.11.21-.2,0,.52,0,.97,0,1.43,0,.67,0,1.34,0,2.01,0,.46.31.75.74.73.39-.02.66-.32.66-.77,0-1.03,0-2.07,0-3.1v-.3c.1.09.15.14.21.19.66.66,1.33,1.33,1.99,1.99.07.07.15.14.23.2Z"/>
  <path class="cls-1" d="m14.45,15.94c-.31.17-.43.53-.31.85.14.36.49.52.92.41.89-.24,1.79-.48,2.68-.72.72-.73,1.57-1.3,2.53-1.68-.07-.07-.11-.16-.14-.28-.37-1.41-.75-2.82-1.14-4.22-.11-.42-.49-.66-.85-.56-.42.11-.61.48-.5.92.11.43.23.85.34,1.28.16.6.32,1.21.49,1.85-.13-.07-.21-.12-.3-.17-.89-.51-1.78-1.02-2.66-1.53-.3-.17-.59-.16-.82.03-.41.34-.36.9.12,1.18.9.53,1.81,1.05,2.71,1.58.07.04.13.09.24.15-1.03.27-2,.53-2.98.79-.11.03-.23.07-.33.12Z"/>
</svg>