<?xml version="1.0" encoding="UTF-8"?>
<svg id="Layer_1" data-name="Layer 1" xmlns="http://www.w3.org/2000/svg" viewBox="0 0 50.36 56">
  <defs>
    <style>
      .cls-1 {
        fill: #9ff4f4;
        stroke-width: 0px;
      }
    </style>
  </defs>
  <path class="cls-1" d="m7.63,27.29c-.31.46-.3.96.02,1.45,1.2,1.83,2.7,3.33,4.44,4.46,2.6,1.68,5.39,2.53,8.32,2.53.85,0,1.72-.07,2.59-.22,3.18-.52,5.94-1.93,8.19-4.18.47-.47.88-.95,1.3-1.43.05-.06.1-.12.15-.18.18.13.36.26.54.39.71.52,1.44,1.05,2.21,1.52,1.69,1.02,3.63,1.68,6.1,2.09.81.13,1.17-.24,1.33-.58.17-.35.24-.88-.4-1.41-1.27-1.08-2.32-2.34-3.11-3.73l.16-.24c.38-.59.78-1.19,1.22-1.72.38-.46.83-.89,1.26-1.31.2-.19.4-.39.59-.58.11-.11.41-.41.41-.85,0-.17-.05-.34-.14-.51-.26-.46-.73-.65-1.29-.51-.37.09-.75.18-1.13.27-.71.16-1.44.33-2.15.55-1.62.49-3.15,1.3-4.57,2.4-.34.26-.66.54-.99.82h0c-1.63-2.12-3.65-3.71-6.01-4.73-3.74-1.62-7.58-1.73-11.43-.35-3.12,1.12-5.67,3.16-7.59,6.05Zm30.95-2.06c-.12.16-.24.32-.36.49-.28.39-.53.79-.77,1.19-.1.16-.2.32-.3.48-.28.44-.26.91.05,1.35.51.7,1.01,1.41,1.52,2.11-1.71-.61-3.25-1.54-4.69-2.84,1.37-1.24,2.87-2.16,4.55-2.77Zm-23.39,5.09c-.13.4-.12.76.05,1.05.14.25.38.42.67.48.36.08,1.02.06,1.32-.87.89-2.77.58-5.41-.91-7.86.44-.14.89-.28,1.34-.36,4.91-.94,9.13.4,12.53,3.97.37.39.71.84,1.04,1.29-2.56,3.48-5.99,5.34-10.19,5.53-3.38.15-6.41-.88-8.99-3.08-.58-.5-1.11-1.11-1.62-1.71-.21-.25-.43-.51-.67-.77,1.23-1.7,2.75-3.03,4.52-3.97.02,0,.03-.02.05-.03.57.8.94,1.68,1.13,2.68.23,1.23.14,2.45-.26,3.64Z"/>
  <path class="cls-1" d="m13.27,25.46c-.81,0-1.47.67-1.49,1.48,0,.4.15.79.44,1.08.29.29.69.46,1.1.46,0,0,.01,0,.02,0,.4,0,.78-.17,1.06-.46.27-.28.41-.64.41-1.01v-.04c-.02-.88-.67-1.51-1.53-1.51h-.01Z"/>
  <path class="cls-1" d="m49.06,21.99c-1.14-.33-2.3-.63-3.45-.94-1.15-.31-2.29-.62-3.56-.96.31-.19.52-.31.73-.43,1.95-1.13,3.91-2.26,5.86-3.39.2-.12.4-.24.56-.4.55-.57.58-1.42.09-2.05-.48-.62-1.3-.79-2.01-.38-1.56.88-3.12,1.79-4.68,2.68-.68.39-1.37.78-2.13,1.21.07-.27.11-.44.15-.6.57-2.17,1.15-4.33,1.72-6.5.19-.74-.01-1.37-.55-1.76-1.01-.71-2.16-.26-2.51,1.02-.87,3.17-1.72,6.35-2.57,9.53-.11.41-.3.66-.67.88-1.46.83-2.92,1.67-4.38,2.52.43.37.85.76,1.25,1.18,1.48-1.07,3.07-1.87,4.74-2.38.78-.24,1.54-.41,2.29-.58.38-.09.73-.17,1.08-.26.27-.07.55-.1.82-.1,1.11,0,2.11.58,2.66,1.56.26.46.4.97.4,1.49,0,.23-.03.52-.12.82,1.12.3,2.25.6,3.37.9.92.25,1.7-.08,2.03-.82.43-.96-.04-1.9-1.14-2.22Z"/>
  <path class="cls-1" d="m48.18,30.96c-1.12.3-2.25.6-3.37.91.22.77.09,1.54-.2,2.14-.52,1.08-1.56,1.72-2.79,1.72-.3,0-.54-.04-.65-.06-2.73-.45-4.88-1.2-6.8-2.35-.51-.3-.98-.63-1.44-.95-.11.12-.23.24-.34.35-.3.3-.61.59-.93.86,1.44.83,2.89,1.67,4.34,2.49.4.23.62.5.74.95.83,3.15,1.68,6.29,2.54,9.43.27.99,1.1,1.51,1.95,1.28.93-.26,1.35-1.07,1.08-2.1-.27-1.05-.55-2.1-.83-3.14-.33-1.24-.66-2.49-1-3.81.27.15.46.25.64.35,2,1.15,4.01,2.31,6.01,3.46.95.54,1.89.35,2.36-.48.46-.82.15-1.71-.78-2.24-1.26-.73-2.53-1.45-3.79-2.18-.92-.53-1.84-1.07-2.86-1.67.72-.2,1.33-.37,1.94-.53,1.7-.46,3.4-.9,5.1-1.38,1.15-.32,1.6-1.51.97-2.44-.41-.62-1.04-.82-1.89-.59Z"/>
  <path class="cls-1" d="m8.22,32.57c-2.02-.56-4.05-1.08-6.08-1.62-.94-.25-1.76.15-2.04.97-.32.92.17,1.81,1.19,2.08,2.09.58,4.19,1.13,6.28,1.7.21.06.42.12.74.21-.32.19-.53.32-.74.44-2,1.16-4,2.31-6,3.47-.83.48-1.12,1.42-.67,2.19.47.8,1.41,1.02,2.27.53.6-.35,1.2-.7,1.8-1.04,1.61-.93,3.23-1.86,4.92-2.84-.05.25-.08.42-.13.59-.56,2.15-1.14,4.29-1.69,6.44-.33,1.26.56,2.28,1.79,2.06.74-.14,1.09-.66,1.28-1.34.84-3.14,1.7-6.28,2.53-9.43.06-.23.15-.42.29-.57-1-.42-1.97-.93-2.92-1.54-1.01-.65-1.95-1.42-2.8-2.28Z"/>
  <path class="cls-1" d="m18.68,4.54c-.18-.18-.36-.35-.56-.5-.77-.54-1.79-.31-2.26.5-.4.68-.27,1.4.4,2.07,2.33,2.33,4.65,4.66,6.99,6.98.25.25.34.49.34.84,0,1.39,0,2.78,0,4.16,1.07.2,2.13.5,3.17.91,0-1.74,0-3.48.01-5.21,0-.23.16-.5.32-.67,2.19-2.21,4.4-4.41,6.6-6.62.21-.21.44-.42.63-.65.69-.86.37-2.06-.64-2.47-.73-.3-1.31-.04-1.83.48-1.54,1.54-3.07,3.07-4.61,4.61-.13.13-.27.25-.49.45,0-.74,0-1.36,0-1.98,0-1.92,0-3.85,0-5.77,0-1.04-.69-1.7-1.67-1.67-.89.03-1.5.71-1.5,1.73,0,2.35,0,4.7,0,7.05v.67c-1.72-1.72-3.31-3.32-4.91-4.91Z"/>
  <path class="cls-1" d="m27.13,42.44c-.26-.26-.38-.51-.37-.88,0-1.68,0-3.36,0-5.03-1.01.39-2.07.68-3.17.88,0,1.39,0,2.78,0,4.16,0,.37-.11.63-.37.88-2.28,2.25-4.54,4.52-6.81,6.78-.16.16-.33.33-.47.51-.38.5-.41,1.07-.15,1.61.27.57.75.89,1.4.91.57.02.97-.3,1.34-.67,1.52-1.52,3.05-3.05,4.57-4.57.13-.13.26-.25.48-.45,0,1.17,0,2.2,0,3.23,0,1.51-.01,3.03,0,4.54.01,1.03.7,1.69,1.68,1.65.89-.04,1.48-.71,1.48-1.74,0-2.33,0-4.66,0-7v-.67c.21.2.34.31.47.43,1.5,1.5,3,3,4.49,4.49.16.16.33.32.52.46.51.36,1.07.39,1.61.1.54-.29.83-.75.84-1.38.02-.57-.28-.97-.66-1.34-2.31-2.3-4.6-4.61-6.92-6.9Z"/>
  <path class="cls-1" d="m.82,22.19c-.69.37-.98,1.2-.7,1.92.32.81,1.11,1.17,2.07.92,2.02-.54,4.04-1.08,6.05-1.63,1.63-1.66,3.55-2.93,5.71-3.8-.15-.17-.25-.37-.32-.63-.84-3.18-1.7-6.36-2.56-9.53-.26-.95-1.1-1.49-1.92-1.27-.94.26-1.39,1.08-1.12,2.08.25.96.51,1.93.77,2.89.36,1.37.72,2.73,1.1,4.18-.28-.16-.49-.27-.68-.39-2.01-1.15-4.01-2.31-6.02-3.45-.67-.39-1.34-.36-1.84.06-.93.76-.82,2.03.26,2.66,2.04,1.2,4.09,2.38,6.13,3.57.16.09.3.19.54.35-2.33.62-4.53,1.2-6.72,1.78-.26.07-.51.15-.75.28Z"/>
</svg>