<svg xmlns="http://www.w3.org/2000/svg" viewBox="0 0 63 46.6"><defs><style>.cls-1{fill:#00bebc;}</style></defs><title>Asset 6</title><g id="Layer_2" data-name="Layer 2"><g id="Layer_1-2" data-name="Layer 1"><path class="cls-1" d="M47.9,0A15,15,0,0,1,63,15.1c0,6.1-3.2,12.1-8,13.2-1.8.5-3.3,2.8-3,5.5S55.7,41.1,62.2,44a1.4,1.4,0,0,1-.7,2.6C44.6,44.5,32.9,33.5,32.9,17.9,32.9,7.2,39.2,0,47.9,0"/><path class="cls-1" d="M15.1,0a15,15,0,0,1,15,15.1c0,6.1-3.2,12.1-7.9,13.2-1.9.5-3.3,2.8-3,5.5S22.9,41.1,29.3,44a1.4,1.4,0,0,1-.7,2.6C11.7,44.5.1,33.5,0,17.9,0,7.2,6.3,0,15.1,0"/></g></g></svg>