<svg xmlns="http://www.w3.org/2000/svg" viewBox="0 0 27.5 27.5"><defs><style>.cls-1{fill:#fd0000;}.cls-2{fill:#fff;}</style></defs><title>Asset 12</title><g id="Layer_2" data-name="Layer 2"><g id="Layer_1-2" data-name="Layer 1"><path class="cls-1" d="M27.5,13.7A13.8,13.8,0,1,1,0,13.7a13.8,13.8,0,0,1,27.5,0"/><path class="cls-2" d="M22.5,9.3a2.2,2.2,0,0,0-1.6-1.6,53.5,53.5,0,0,0-7.2-.4s-5.7,0-7.1.4A2.2,2.2,0,0,0,5,9.3a22.6,22.6,0,0,0-.4,4.4A22.6,22.6,0,0,0,5,18.1a2.2,2.2,0,0,0,1.6,1.6c1.4.4,7.1.4,7.1.4a53.5,53.5,0,0,0,7.2-.4,2.2,2.2,0,0,0,1.6-1.6,22.6,22.6,0,0,0,.4-4.4,22.6,22.6,0,0,0-.4-4.4M11.9,16.5V11l4.7,2.7Z"/></g></g></svg>