<svg xmlns="http://www.w3.org/2000/svg" viewBox="0 0 120 42.5"><defs><style>.cls-1{fill:#009ba0;}</style></defs><title>Asset 1</title><g id="Layer_2" data-name="Layer 2"><g id="Layer_1-2" data-name="Layer 1"><polygon class="cls-1" points="114.2 3.5 116.5 3.5 116.5 3.9 115.6 3.9 115.6 6.4 115.2 6.4 115.2 3.9 114.2 3.9 114.2 3.5"/><polygon class="cls-1" points="117 3.5 117.4 3.5 118.5 5.6 119.5 3.5 120 3.5 120 6.4 119.6 6.4 119.6 4.1 118.6 6.1 118.4 6.1 117.3 4.1 117.3 6.4 117 6.4 117 3.5"/><path class="cls-1" d="M0,6.4H6.4V8.8a10.7,10.7,0,0,1,2.2-2A5.7,5.7,0,0,1,11.8,6a6.6,6.6,0,0,1,3.2.7,5.6,5.6,0,0,1,2.1,2.2,10.9,10.9,0,0,1,2.6-2.2A7.5,7.5,0,0,1,23.2,6a5.7,5.7,0,0,1,4.5,1.7,6.8,6.8,0,0,1,1.7,4.9V24.5H23V14.7a3.7,3.7,0,0,0-.7-2.3,2.5,2.5,0,0,0-1.8-.8,2.6,2.6,0,0,0-1.9.8,3.2,3.2,0,0,0-.7,2.3v9.8H11.5V14.7a3.7,3.7,0,0,0-.7-2.3A2.2,2.2,0,0,0,9,11.6a2.6,2.6,0,0,0-1.9.8,3.7,3.7,0,0,0-.7,2.3v9.8H0Z"/><path class="cls-1" d="M37.9,24.9a10.1,10.1,0,0,1-2.5-.3,7.2,7.2,0,0,1-1.9-1.1,7,7,0,0,1-1.3-1.7,6.2,6.2,0,0,1-.5-2.5h0a4.9,4.9,0,0,1,.6-2.5A4.9,4.9,0,0,1,33.7,15a7.6,7.6,0,0,1,2.2-1.1,13.9,13.9,0,0,1,3-.3,9.7,9.7,0,0,1,2.4.2,7.4,7.4,0,0,1,1.9.5V14a2.7,2.7,0,0,0-.9-2.2,4,4,0,0,0-2.7-.8,10.3,10.3,0,0,0-2.6.3,10.9,10.9,0,0,0-2.4.7L33.3,7.5a15.9,15.9,0,0,1,3.3-1,15.9,15.9,0,0,1,4-.4,12.5,12.5,0,0,1,4.2.6,6.4,6.4,0,0,1,2.8,1.6,6.1,6.1,0,0,1,1.5,2.4,11.8,11.8,0,0,1,.4,3.4V24.5H43.2V22.7A6.9,6.9,0,0,1,41,24.3a7.5,7.5,0,0,1-3.1.6m2.2-4a3,3,0,0,0,2.3-.8,2.6,2.6,0,0,0,.9-2.1v-.9l-1.1-.3-1.4-.2a3.8,3.8,0,0,0-2.2.7,1.9,1.9,0,0,0-.7,1.6h0a1.7,1.7,0,0,0,.6,1.4,2.4,2.4,0,0,0,1.6.5"/><path class="cls-1" d="M52.8,6.4h6.4V10a7,7,0,0,1,2.1-2.9,4.8,4.8,0,0,1,3.7-1v6.7h-.6a4.6,4.6,0,0,0-3.8,1.5,6.5,6.5,0,0,0-1.4,4.6v5.6H52.8Z"/><path class="cls-1" d="M67.2,0h6.7V4.7H67.2Zm.1,6.4h6.4V24.5H67.3Z"/><path class="cls-1" d="M77.3,6.4h6.4V8.9l.9-1.1,1.2-.9,1.5-.7A5,5,0,0,1,89.1,6a5.6,5.6,0,0,1,4.5,1.7,7.1,7.1,0,0,1,1.7,4.9V24.5H88.9V14.7a3.7,3.7,0,0,0-.7-2.3,2.6,2.6,0,0,0-1.9-.8,2.7,2.7,0,0,0-1.9.8,3.2,3.2,0,0,0-.7,2.3v9.8H77.3Z"/><path class="cls-1" d="M103.8,24.9a8.8,8.8,0,0,1-2.4-.3,6.4,6.4,0,0,1-2-1.1,10.9,10.9,0,0,1-1.3-1.7,6.2,6.2,0,0,1-.4-2.5h0A5.3,5.3,0,0,1,99.6,15a8.2,8.2,0,0,1,2.3-1.1,12.3,12.3,0,0,1,2.9-.3,9.3,9.3,0,0,1,2.4.2l2,.5V14a2.7,2.7,0,0,0-.9-2.2,4.3,4.3,0,0,0-2.8-.8,15.2,15.2,0,0,0-5,1L99.2,7.5a15.9,15.9,0,0,1,3.3-1,16.2,16.2,0,0,1,4.1-.4,12.2,12.2,0,0,1,4.1.6,5.9,5.9,0,0,1,2.8,1.6,6.1,6.1,0,0,1,1.5,2.4,11.6,11.6,0,0,1,.5,3.4V24.5h-6.4V22.7a6,6,0,0,1-2.2,1.6,7.5,7.5,0,0,1-3.1.6m2.3-4a3.1,3.1,0,0,0,2.3-.8,2.9,2.9,0,0,0,.8-2.1v-.9l-1.1-.3-1.4-.2a3.3,3.3,0,0,0-2.1.7,1.9,1.9,0,0,0-.8,1.6h0a1.5,1.5,0,0,0,.7,1.4,2.1,2.1,0,0,0,1.6.5"/><path class="cls-1" d="M1.3,35.8c-.3-.2-.1-.7.2-.6a44.6,44.6,0,0,0,5.1.7,34.2,34.2,0,0,0,6.4,0h2.4l.8-.2,1.5-.2h0l1.6-.4.8-.2.7-.2,1.5-.4h0L25.4,33l1.6-.6.9-.3.9-.2,1.7-.4,1.7-.3,3.6-.3h3.5l3.5.5h0l1.7.4,1.7.5A26.2,26.2,0,0,1,51,34.6c.3.2.1.7-.2.6l-5.1-.7H36.1a28.4,28.4,0,0,0-3.1.6l-1.6.3-1.5.5-.8.2-.7.2-1.5.6-1.6.5-1.7.6h0l-1.7.4-.9.2-.9.2-1.8.2-1.7.2H13A27.1,27.1,0,0,1,6.1,38a26.2,26.2,0,0,1-4.8-2.2"/><path class="cls-1" d="M26.3,29.7a43.5,43.5,0,0,1,8.6-2.2,30.8,30.8,0,0,1,9.1.1,23.9,23.9,0,0,1,8.5,3.3,36.5,36.5,0,0,0,15.6,5.2A19,19,0,0,0,75.9,35l1.9-.8,1.8-1.1L81.5,32l1.3-.9c.2-.1.3.1.3.3l-.3.4-.6.9-1.5,1.7L79,36l-1.9,1.3a18.3,18.3,0,0,1-9.2,2.4,21.6,21.6,0,0,1-9-2.1A46.9,46.9,0,0,1,51,33.2a22.9,22.9,0,0,0-7.5-3.3,26.3,26.3,0,0,0-8.4-.7,34.6,34.6,0,0,0-8.4,1.6l-4.1,1.4-1.5.7c-.2.1-.4-.2-.2-.3a31.4,31.4,0,0,1,5.4-2.9"/><path class="cls-1" d="M63,41.4c-.4-.2-.1-.8.3-.7,3.9.9,11.8,1.2,21.8-7.5,13.9-12,25.5-1.1,29.2,3,.3.3-.1.8-.5.6-4.4-1.8-16.7-6.1-27-.2C73.8,44.1,66.5,43,63,41.4"/></g></g></svg>