<svg xmlns="http://www.w3.org/2000/svg" viewBox="0 0 5662.1 228.5"><defs><style>.cls-1{fill:#f0f0f0;}</style></defs><title>Asset 8</title><g id="Layer_2" data-name="Layer 2"><g id="Layer_1-2" data-name="Layer 1"><path class="cls-1" d="M4095.2,60.6c0,33.9.1,126.4-.2,160.2-.1,5.8,1,8,6.4,6.8a27.8,27.8,0,0,1,5,0q772.1,0,1544.2.2c9.4,0,11.8-2.2,11.5-12.4-.8-23.9-.3-106.5-.3-130.4-14.6-9.1-31-12.8-47-17.4-71.5-20.3-144-35.6-217.7-40.5-79.9-5.4-158.8,1.6-236.1,27.5-55,18.3-111.9,29.1-169.6,30.9-36.2,1.1-72.3-4.3-108.3-8.6-74.8-8.9-147.2-30.5-220.5-47.6-48-11.1-95.8-24.8-145-28.7-29-2.3-58.1,2-87,6.8-40.4,6.9-79.2,21-118.5,33.2-45.8,14.2-92.2,24.5-140.2,23.7-17.9-.3-35.7-2.6-53.5-4.3-7.7-.7-15.6-4.1-23.2.6"/><path class="cls-1" d="M.3,60.6C.3,94.5.5,187.5,0,221.4c-.1,5.8,1.7,8,10.4,6.8a72.7,72.7,0,0,1,8.1-.1q1249.4,0,2498.7.3c15.1,0,19.1-2.2,18.6-12.4-1.3-23.9-.4-107.1-.4-131-23.7-9.1-50.3-12.8-76.2-17.4C2343.6,47.3,2226.3,32,2106.9,27.1,1977.7,21.7,1850,28.7,1725,54.6a1510.1,1510.1,0,0,1-274.5,30.9c-58.6,1.1-116.9-4.3-175.2-8.6C1154.2,68,1037.1,46.4,918.5,29.3,840.7,18.2,763.4,4.5,683.9.6c-47-2.3-94.2,2-140.8,6.8-65.5,6.9-128.3,21-191.8,33.2C277.1,54.8,202,65.1,124.4,64.3,95.5,64,66.7,61.7,37.8,60c-12.5-.7-25.2-4.1-37.5.6"/><path class="cls-1" d="M4105.3,60.6c0,33.9-.2,126.4.3,160.2.1,5.8-1.7,8-10.4,6.8a73,73,0,0,0-8.1,0q-1249.3,0-2498.7.2c-15.1,0-19.1-2.2-18.6-12.4,1.3-23.9.4-106.5.4-130.4,23.7-9.1,50.3-12.8,76.2-17.4C1762,47.3,1879.3,32,1998.7,27.1c129.3-5.4,256.9,1.6,381.9,27.5a1510.1,1510.1,0,0,0,274.5,30.9c58.6,1.1,116.9-4.3,175.2-8.6,121.1-8.9,238.2-30.5,356.8-47.6C3264.9,18.2,3342.2,4.5,3421.7.6c47-2.3,94.2,2,140.8,6.8,65.5,6.9,128.3,21,191.8,33.2,74.2,14.2,149.3,24.5,226.9,23.7,28.9-.3,57.7-2.6,86.6-4.3,12.5-.7,25.2-4.1,37.5.6"/></g></g></svg>