<svg xmlns="http://www.w3.org/2000/svg" xmlns:xlink="http://www.w3.org/1999/xlink" viewBox="0 0 5413.9 333.8"><defs><style>.cls-1{fill:none;}.cls-2{clip-path:url(#clip-path);}.cls-3{fill:#00a9a9;}.cls-4{fill:#008188;}.cls-5{fill:#00bebc;}.cls-6{clip-path:url(#clip-path-2);}.cls-7{clip-path:url(#clip-path-3);}</style><clipPath id="clip-path" transform="translate(0 -12.4)"><rect class="cls-1" x="2060.4" width="1440" height="252.19"/></clipPath><clipPath id="clip-path-2" transform="translate(0 -12.4)"><rect class="cls-1" x="3499.4" width="1440" height="252.19"/></clipPath><clipPath id="clip-path-3" transform="translate(0 -12.4)"><rect class="cls-1" x="620.6" width="1440" height="252.19"/></clipPath></defs><title>Asset 9</title><g id="Layer_2" data-name="Layer 2"><g id="Layer_1-2" data-name="Layer 1"><g class="cls-2"><path class="cls-3" d="M1585.9,254.5V170.6c7.7-7.1,19.5-9.5,31.1-11.9,73.1-15.1,147.4-21.2,223.7-13,45.9,5,92,10.1,138.5,11.6,41.4,1.3,81.9-4,121.9-10.8,72.5-12.5,143.3-29,215.2-43,138.6-27.1,277.7-27.5,418-5.6,110.4,17.2,220.9,34.5,333.9,42.5,81.2,5.7,162.5,9.4,243.4-3.2,28.3-4.5,55.8-10.7,83.3-16.8a851.1,851.1,0,0,1,124.4-18c45.9-3.3,90,3.5,132.9,13.6,68.8,16.1,137.4,33.2,210.6,37.8,75,4.8,150.2,11.9,225.3-1,10.7-1.8,22.5-4.4,32.9,1.5v92.1c-13.4,6.8-28.4,4.3-42.8,2.6-54.6-6.6-107.2-18.1-159.8-29.7s-107.3-16.5-163-17.6c-84.5-1.6-166.6,6.8-248.2,20.3-101.3,16.7-203,18.5-303.7-2.2-87.9-18-175.4-15.9-263.6-1.7-45.2,7.2-91,12.9-136.9,18.2-69.2,7.8-137,1.8-204.9-7-73.5-9.6-145.8-22.8-218.6-34.4-90.1-14.2-178.1-9.9-265.1,9.2-50,11-98.6,24.5-148.6,35.3-64.7,13.9-132.3,17.2-199.7,19.2-51.1,1.4-102.2,5.5-153.4.3-9.2-.9-19.1.4-26.8-4.4" transform="translate(0 -12.4)"/><path class="cls-4" d="M4121,316.8c-66.1,1.4-132.3.9-195.4-14a1435.5,1435.5,0,0,0-149.4-27.1c-30.3-3.9-60.7-7.3-91.6-7.6-23.6-.3-46.7-3.6-70.4-2.9-83.3,2.5-165.8,9.1-246.3,23.5-57.7,10.3-113.6,24.3-169.4,38.7-87.7,22.6-176.9,24.5-268.4,7.5-67.2-12.5-133.1-27.8-201.1-38.4-93.2-14.5-187.7-17.8-282.5-14.4-82.3,2.9-162.9,16-244.1,25.1s-161.9,11.6-243.9,2.5c-61-6.8-123-5.3-184.7.6a1138.6,1138.6,0,0,0-154.1,25.3l-33.8,8.2V254.5c25.6-.7,51.2,2.7,76.5,2.2,91.1-1.9,182.6-2.5,272.3-16,38.6-5.8,75.1-16.4,112.1-25.4,75.4-18.5,151.3-35.3,232.9-33.7,49.7,1,98.3,8.1,146.6,16.2,76.8,12.7,153.4,26.1,231.6,34.3,59.1,6.2,117.9,4.2,176.3-3.6,61.1-8.3,121.8-18.7,183.4-24.6,66.4-6.4,132.2.3,196.6,13.1a700.6,700.6,0,0,0,167.3,13c39.5-1.7,79.1-3.9,117.3-11a1303.6,1303.6,0,0,1,287.3-21.1c52.4,1.9,103,10.1,153.1,21.1,59.1,12.9,117.9,28.2,181.8,27.4Z" transform="translate(0 -12.4)"/><path class="cls-5" d="M4121,154.3c-29.1,0-57.1,5.4-85.3,8.8-38.8,4.7-76.6-.2-114.6-1.2-52.8-1.5-105.7-6.1-156.6-16.4-45.1-9-89.5-19.5-134-29.7-69.9-16-139.1-10.2-207.6,3.4-55.4,11-109.5,25-167.5,28.9-46.7,3.1-93.4,2.4-140.3-.7-39.4-2.5-78.7-4.8-117.8-9-70.9-7.7-141.1-17.5-211-28.3-91.8-14.1-183.7-26.8-278.8-23.6-83.8,2.9-164.6,14.6-244.1,32.1-72.1,15.8-144.3,31.6-219.1,40.6-47.2,5.8-95.4,3.4-142-2.9-107.8-14.7-213.3-13.5-316.4,14.3V70.4c53.4-6.2,107.2-6.7,161.1-5.9,70.3,1.1,139.2,9.1,208.1,17.2,84.8,9.8,167.3,2.6,249.1-13.4,68.3-13.3,134.7-31,204.4-41.5,82.9-12.5,165.8-9.1,249-1.3,107.2,10.1,212.6,26.7,318.9,40.1,109.6,13.8,213.7,3.6,317.2-21,68.5-16.3,139.1-27.4,212.1-31.2C3601.7,8.3,3691,24.3,3778,49.3c46.9,13.6,93.9,27.3,144.1,34.3,65.8,9.3,128.2-1.6,189.5-16.5,3.1-.8,6.3-1.4,9.4-2.1Z" transform="translate(0 -12.4)"/></g><g class="cls-6"><path class="cls-3" d="M5413.9,254.5V170.6c-7.7-7.1-19.5-9.5-31.1-11.9-73.1-15.1-147.4-21.2-223.7-13-46,5-92,10.1-138.5,11.6-41.4,1.3-81.9-4-121.9-10.8-72.5-12.5-143.3-29-215.2-43-138.6-27.1-277.7-27.5-418-5.6-110.4,17.2-220.9,34.5-333.9,42.5-81.3,5.7-162.5,9.4-243.4-3.2-28.3-4.5-55.8-10.7-83.3-16.8a851.1,851.1,0,0,0-124.4-18c-46-3.3-90,3.5-132.9,13.6-68.8,16.1-137.4,33.2-210.6,37.8-75,4.8-150.3,11.9-225.3-1-10.7-1.8-22.5-4.4-32.9,1.5v92.1c13.4,6.8,28.4,4.3,42.8,2.6,54.6-6.6,107.2-18.1,159.7-29.7s107.3-16.5,163.1-17.6c84.4-1.6,166.5,6.8,248.1,20.3,101.4,16.7,203.1,18.5,303.8-2.2,87.9-18,175.4-15.9,263.6-1.7,45.2,7.2,91,12.9,136.9,18.2,69.2,7.8,137,1.8,204.8-7,73.6-9.6,145.8-22.8,218.7-34.4,90.1-14.2,178.1-9.9,265.1,9.2,49.9,11,98.6,24.5,148.6,35.3,64.7,13.9,132.3,17.2,199.7,19.2,51,1.4,102.2,5.5,153.4.3,9.2-.9,19,.4,26.8-4.4" transform="translate(0 -12.4)"/><path class="cls-4" d="M2878.8,316.8c66.1,1.4,132.3.9,195.4-14a1430.7,1430.7,0,0,1,149.4-27.1c30.3-3.9,60.7-7.3,91.6-7.6,23.5-.3,46.6-3.6,70.4-2.9,83.3,2.5,165.8,9.1,246.3,23.5,57.6,10.3,113.5,24.3,169.3,38.7,87.8,22.6,177,24.5,268.5,7.5,67.2-12.5,133.1-27.8,201.1-38.4,93.2-14.5,187.7-17.8,282.5-14.4,82.3,2.9,162.9,16,244.1,25.1s161.9,11.6,243.9,2.5c61-6.8,123-5.3,184.7.6a1138.6,1138.6,0,0,1,154.1,25.3l33.8,8.2V254.5c-25.6-.7-51.2,2.7-76.5,2.2-91.1-1.9-182.7-2.5-272.3-16-38.7-5.8-75.1-16.4-112.2-25.4-75.3-18.5-151.2-35.3-232.8-33.7-49.7,1-98.4,8.1-146.6,16.2-76.8,12.7-153.4,26.1-231.7,34.3-59,6.2-117.8,4.2-176.2-3.6-61.1-8.3-121.8-18.7-183.4-24.6-66.4-6.4-132.2.3-196.6,13.1a701,701,0,0,1-167.3,13c-39.5-1.7-79.1-3.9-117.3-11a1304,1304,0,0,0-287.3-21.1c-52.4,1.9-103,10.1-153.1,21.1-59.2,12.9-117.9,28.2-181.8,27.4Z" transform="translate(0 -12.4)"/><path class="cls-5" d="M2878.8,154.3c29,0,57.1,5.4,85.3,8.8,38.8,4.7,76.6-.2,114.6-1.2,52.8-1.5,105.7-6.1,156.6-16.4,45-9,89.5-19.5,134-29.7,69.9-16,139-10.2,207.6,3.4,55.3,11,109.5,25,167.4,28.9,46.8,3.1,93.5,2.4,140.4-.7,39.4-2.5,78.7-4.8,117.8-9,70.9-7.7,141.1-17.5,211-28.3,91.8-14.1,183.7-26.8,278.8-23.6,83.8,2.9,164.6,14.6,244.1,32.1,72,15.8,144.3,31.6,219.1,40.6,47.1,5.8,95.3,3.4,142-2.9,107.7-14.7,213.2-13.5,316.4,14.3V70.4c-53.4-6.2-107.2-6.7-161.1-5.9-70.3,1.1-139.2,9.1-208.1,17.2-84.9,9.8-167.3,2.6-249.1-13.4-68.3-13.3-134.7-31-204.4-41.5-82.9-12.5-165.8-9.1-249-1.3C4235,35.6,4129.6,52.2,4023.3,65.6c-109.7,13.8-213.7,3.6-317.2-21C3637.6,28.3,3567,17.2,3494,13.4c-95.9-5.1-185.2,10.9-272.2,35.9-46.9,13.6-93.9,27.3-144.1,34.3-65.8,9.3-128.2-1.6-189.5-16.5-3.1-.8-6.3-1.4-9.4-2.1Z" transform="translate(0 -12.4)"/></g><g class="cls-7"><path class="cls-3" d="M2535.1,254.5V170.6c-7.7-7.1-19.4-9.5-31-11.9-73.2-15.1-147.5-21.2-223.8-13-45.9,5-91.9,10.1-138.5,11.6-41.4,1.3-81.9-4-121.8-10.8-72.6-12.5-143.4-29-215.3-43-138.6-27.1-277.6-27.5-418-5.6-110.4,17.2-220.8,34.5-333.9,42.5-81.2,5.7-162.5,9.4-243.4-3.2-28.3-4.5-55.8-10.7-83.2-16.8a855.1,855.1,0,0,0-124.4-18c-46-3.3-90.1,3.5-133,13.6-68.8,16.1-137.3,33.2-210.6,37.8-75,4.8-150.2,11.9-225.3-1C22.3,151,10.4,148.4,0,154.3v92.1c13.4,6.8,28.4,4.3,42.8,2.6,54.7-6.6,107.2-18.1,159.8-29.7s107.3-16.5,163-17.6c84.5-1.6,166.6,6.8,248.2,20.3,101.3,16.7,203.1,18.5,303.7-2.2,87.9-18,175.5-15.9,263.6-1.7,45.2,7.2,91,12.9,136.9,18.2,69.2,7.8,137,1.8,204.9-7,73.5-9.6,145.8-22.8,218.6-34.4,90.1-14.2,178.1-9.9,265.1,9.2,50,11,98.6,24.5,148.6,35.3,64.7,13.9,132.3,17.2,199.7,19.2,51.1,1.4,102.2,5.5,153.4.3,9.2-.9,19.1.4,26.8-4.4" transform="translate(0 -12.4)"/><path class="cls-4" d="M0,316.8c66.1,1.4,132.3.9,195.4-14a1435.5,1435.5,0,0,1,149.4-27.1c30.3-3.9,60.8-7.3,91.7-7.6,23.5-.3,46.6-3.6,70.3-2.9,83.3,2.5,165.8,9.1,246.4,23.5C810.8,299,866.7,313,922.5,327.4c87.7,22.6,176.9,24.5,268.5,7.5,67.1-12.5,133-27.8,201-38.4,93.2-14.5,187.7-17.8,282.5-14.4,82.3,2.9,162.9,16,244.1,25.1s161.9,11.6,243.9,2.5c61-6.8,123-5.3,184.7.6a1138.6,1138.6,0,0,1,154.1,25.3l33.8,8.2V254.5c-25.6-.7-51.2,2.7-76.4,2.2-91.2-1.9-182.7-2.5-272.4-16-38.6-5.8-75.1-16.4-112.1-25.4-75.4-18.5-151.3-35.3-232.8-33.7-49.8,1-98.4,8.1-146.7,16.2-76.8,12.7-153.4,26.1-231.6,34.3-59.1,6.2-117.9,4.2-176.3-3.6-61.1-8.3-121.7-18.7-183.3-24.6-66.4-6.4-132.2.3-196.6,13.1a701.8,701.8,0,0,1-167.4,13c-39.4-1.7-79.1-3.9-117.3-11a1303.6,1303.6,0,0,0-287.3-21.1c-52.3,1.9-103,10.1-153.1,21.1C122.7,231.9,63.9,247.2,0,246.4Z" transform="translate(0 -12.4)"/><path class="cls-5" d="M0,154.3c29.1,0,57.2,5.4,85.3,8.8,38.8,4.7,76.6-.2,114.6-1.2,52.8-1.5,105.7-6.1,156.7-16.4,45-9,89.4-19.5,133.9-29.7,69.9-16,139.1-10.2,207.6,3.4,55.4,11,109.5,25,167.5,28.9,46.7,3.1,93.5,2.4,140.3-.7,39.4-2.5,78.7-4.8,117.8-9,70.9-7.7,141.1-17.5,211.1-28.3,91.7-14.1,183.6-26.8,278.8-23.6,83.7,2.9,164.6,14.6,244,32.1,72.1,15.8,144.4,31.6,219.1,40.6,47.2,5.8,95.4,3.4,142.1-2.9,107.7-14.7,213.2-13.5,316.3,14.3V70.4c-53.4-6.2-107.1-6.7-161.1-5.9-70.2,1.1-139.2,9.1-208.1,17.2-84.8,9.8-167.3,2.6-249-13.4-68.4-13.3-134.8-31-204.5-41.5-82.9-12.5-165.8-9.1-249-1.3-107.2,10.1-212.6,26.7-318.8,40.1-109.7,13.8-213.8,3.6-317.2-21C758.8,28.3,688.2,17.2,615.3,13.4,519.3,8.3,430,24.3,343,49.3c-46.8,13.6-93.9,27.3-144.1,34.3C133.1,92.9,70.7,82,9.4,67.1,6.3,66.3,3.1,65.7,0,65Z" transform="translate(0 -12.4)"/></g></g></g></svg>